<svg width="400" height="400" xmlns="http://www.w3.org/2000/svg">
 <!-- Created with SVG Editor - http://github.com/mzalive/SVG Editor/ -->

 <g>
  <title>background</title>
  <rect fill="none" id="canvas_background" height="402" width="402" y="-1" x="-1"/>
  <g display="none" overflow="visible" y="0" x="0" height="100%" width="100%" id="canvasGrid">
   <rect fill="url(#gridpattern)" stroke-width="0" y="0" x="0" height="100%" width="100%"/>
  </g>
 </g>
 <g>
  <title>Layer 1</title>
  <!-- Created with SVG Editor - http://github.com/mzalive/SVG Editor/ -->
  <g stroke="null" id="svg_19">
   <g stroke="null" transform="matrix(1.3034908568172037,0,0,1.3034908568172037,-1006.5853607234583,-1006.5853607234583) " id="svg_16">
    <title stroke="null" transform="translate(0,0.7671707272529602) translate(0,0.7671818733215332) translate(0.7671818733215332,0) translate(1.1368683772161603e-13,6.1063551902771) translate(6.1063551902771,1.1368683772161603e-13) translate(0,39.98263168334961) translate(39.98263168334961,0) translate(-1.1368683772161603e-13,-133.69920349121094) translate(-133.69920349121094,-1.1368683772161603e-13) translate(862.5,0) translate(0,862.5) ">background</title>
    <rect stroke="null" x="774.656965" y="775.424136" width="302" height="302" id="svg_14" fill="none"/>
    <g stroke="null" id="svg_13" display="none">
     <rect stroke="null" id="svg_17" width="400" height="400" x="775.656965" y="776.424136" stroke-width="0" fill="url(#gridpattern)"/>
    </g>
   </g>
   <g stroke="null" transform="matrix(1.3034908568172037,0,0,1.3034908568172037,-1006.5853607234583,-1006.5853607234583) " id="svg_18">
    <title fill="#0019ff" transform="translate(0,0.7671707272529602) translate(0,0.7671818733215332) translate(0.7671818733215332,0) translate(1.1368683772161603e-13,6.1063551902771) translate(6.1063551902771,1.1368683772161603e-13) translate(0,39.98263168334961) translate(39.98263168334961,0) translate(-1.1368683772161603e-13,-133.69920349121094) translate(-133.69920349121094,-1.1368683772161603e-13) translate(862.5,0) translate(0,862.5) ">Layer 1</title>
    <!-- Uploaded to SVGRepo https://www.svgrepo.com -->
    <desc fill="#0019ff" transform="translate(0,0.7671707272529602) translate(0,0.7671818733215332) translate(0.7671818733215332,0) translate(1.1368683772161603e-13,6.1063551902771) translate(6.1063551902771,1.1368683772161603e-13) translate(0,39.98263168334961) translate(39.98263168334961,0) translate(-1.1368683772161603e-13,-133.69920349121094) translate(-133.69920349121094,-1.1368683772161603e-13) translate(862.5,0) translate(0,862.5) ">Created with Sketch.</desc>
    <g stroke="null" id="svg_9">
     <g stroke="null" id="svg_10" fill="none" fill-rule="evenodd" transform="matrix(13.391372379091397,0,0,13.391372379091397,-1.0529946103009462,-1.6390090146279377) ">
      <g stroke="null" id="svg_11" fill="#212121" fill-rule="nonzero">
       <path fill="#0019ff" d="m70.905213,59.592872c-0.3928,-0.38818 -1.026,-0.3844 -1.4142,0.00845c-0.3881,0.39285 -0.3844,1.026 0.0085,1.41419l7.3762,7.28868l-17.6753,0c-0.55228,0 -1,0.4477 -1,1c0,0.5523 0.44772,1 1,1l17.673,0l-7.3739,7.2864c-0.3929,0.3882 -0.3966,1.0214 -0.0085,1.4142c0.3882,0.3929 1.0214,0.3966 1.4142,0.0085l8.927,-8.8211c0.4952,-0.4893 0.4952,-1.2889 0,-1.7783l-8.927,-8.82102z" id="svg_12"/>
      </g>
     </g>
    </g>
   </g>
  </g>
 </g>
</svg>