<svg width="300" height="300" xmlns="http://www.w3.org/2000/svg">
 <!-- Created with SVG Editor - http://github.com/mzalive/SVG Editor/ -->

 <g>
  <title>background</title>
  <rect fill="none" id="canvas_background" height="302" width="302" y="-1" x="-1"/>
  <g display="none" overflow="visible" y="0" x="0" height="100%" width="100%" id="canvasGrid">
   <rect fill="url(#gridpattern)" stroke-width="0" y="0" x="0" height="100%" width="100%"/>
  </g>
 </g>
 <g>
  <title>Layer 1</title>
  <g stroke="null" id="svg_32">
   <g stroke="null" transform="matrix(1.0038154290050567,0,0,1.0038154290050567,-929.5939585304952,-607.9523774067951) " id="svg_5">
    <g stroke="null" id="svg_6">
     <g stroke="null" id="svg_7">
      <path fill="#ffffff" stroke="null" id="svg_8" d="m1204.490469,631.811476l-32.52,0l0,-16.48c0,-2.761 -2.239,-5 -5,-5l-42.96,0c-2.761,0 -5,2.239 -5,5l0,16.48l-87.04,0l0,-16.48c0,-2.761 -2.239,-5 -5,-5l-42.96,0c-2.761,0 -5,2.239 -5,5l0,16.48l-32.52,0c-8.271,0 -15,6.729 -15,15l0,57l0,181c0,8.271 6.729,15 15,15l258,0c8.271,0 15,-6.729 15,-15l0,-181l0,-57c0,-8.271 -6.729,-15 -15,-15zm-75.48,5l0,-16.48l32.96,0l0,16.48l0,16.48l-32.96,0l0,-16.48zm-140,0l0,-16.48l32.96,0l0,16.48l0,16.48l-32.96,0l0,-16.48zm220.48,248c0,2.757 -2.243,5 -5,5l-258,0c-2.757,0 -5,-2.243 -5,-5l0,-176l268,0l0,176zm0,-186l-268,0l0,-52c0,-2.757 2.243,-5 5,-5l32.52,0l0,16.48c0,2.761 2.239,5 5,5l42.96,0c2.761,0 5,-2.239 5,-5l0,-16.48l87.04,0l0,16.48c0,2.761 2.239,5 5,5l42.96,0c2.761,0 5,-2.239 5,-5l0,-16.48l32.52,0c2.757,0 5,2.243 5,5l0,52z"/>
      <path fill="#ffffff" stroke="null" id="svg_9" d="m969.781469,785.020476l28.418,0c2.761,0 5,-2.239 5,-5l0,-28.418c0,-2.761 -2.239,-5 -5,-5l-28.418,0c-2.761,0 -5,2.239 -5,5l0,28.418c0,2.761 2.239,5 5,5z"/>
      <path fill="#ffffff" stroke="null" id="svg_10" d="m1030.781469,785.020476l28.418,0c2.761,0 5,-2.239 5,-5l0,-28.418c0,-2.761 -2.239,-5 -5,-5l-28.418,0c-2.761,0 -5,2.239 -5,5l0,28.418c0,2.761 2.239,5 5,5z"/>
      <path fill="#ffffff" stroke="null" id="svg_11" d="m1091.781469,785.020476l28.418,0c2.761,0 5,-2.239 5,-5l0,-28.418c0,-2.761 -2.239,-5 -5,-5l-28.418,0c-2.761,0 -5,2.239 -5,5l0,28.418c0,2.761 2.239,5 5,5z"/>
      <path fill="#ffffff" stroke="null" id="svg_12" d="m1152.781469,785.020476l28.418,0c2.761,0 5,-2.239 5,-5l0,-28.418c0,-2.761 -2.239,-5 -5,-5l-28.418,0c-2.761,0 -5,2.239 -5,5l0,28.418c0,2.761 2.239,5 5,5z"/>
      <path fill="#ffffff" stroke="null" id="svg_13" d="m969.781469,845.687476l28.418,0c2.761,0 5,-2.239 5,-5l0,-28.418c0,-2.761 -2.239,-5 -5,-5l-28.418,0c-2.761,0 -5,2.239 -5,5l0,28.418c0,2.761 2.239,5 5,5z"/>
      <path fill="#ffffff" stroke="null" id="svg_14" d="m1030.781469,845.687476l28.418,0c2.761,0 5,-2.239 5,-5l0,-28.418c0,-2.761 -2.239,-5 -5,-5l-28.418,0c-2.761,0 -5,2.239 -5,5l0,28.418c0,2.761 2.239,5 5,5z"/>
      <path fill="#ffffff" stroke="null" id="svg_15" d="m1091.781469,845.687476l28.418,0c2.761,0 5,-2.239 5,-5l0,-28.418c0,-2.761 -2.239,-5 -5,-5l-28.418,0c-2.761,0 -5,2.239 -5,5l0,28.418c0,2.761 2.239,5 5,5z"/>
      <path fill="#ffffff" stroke="null" id="svg_16" d="m1152.781469,845.687476l28.418,0c2.761,0 5,-2.239 5,-5l0,-28.418c0,-2.761 -2.239,-5 -5,-5l-28.418,0c-2.761,0 -5,2.239 -5,5l0,28.418c0,2.761 2.239,5 5,5z"/>
     </g>
    </g>
   </g>
   <g stroke="null" transform="matrix(1.0038154290050567,0,0,1.0038154290050567,-929.5939585304952,-607.9523774067951) " id="svg_17"/>
   <g stroke="null" transform="matrix(1.0038154290050567,0,0,1.0038154290050567,-929.5939585304952,-607.9523774067951) " id="svg_18"/>
   <g stroke="null" transform="matrix(1.0038154290050567,0,0,1.0038154290050567,-929.5939585304952,-607.9523774067951) " id="svg_19"/>
   <g stroke="null" transform="matrix(1.0038154290050567,0,0,1.0038154290050567,-929.5939585304952,-607.9523774067951) " id="svg_20"/>
   <g stroke="null" transform="matrix(1.0038154290050567,0,0,1.0038154290050567,-929.5939585304952,-607.9523774067951) " id="svg_21"/>
   <g stroke="null" transform="matrix(1.0038154290050567,0,0,1.0038154290050567,-929.5939585304952,-607.9523774067951) " id="svg_22"/>
   <g stroke="null" transform="matrix(1.0038154290050567,0,0,1.0038154290050567,-929.5939585304952,-607.9523774067951) " id="svg_23"/>
   <g stroke="null" transform="matrix(1.0038154290050567,0,0,1.0038154290050567,-929.5939585304952,-607.9523774067951) " id="svg_24"/>
   <g stroke="null" transform="matrix(1.0038154290050567,0,0,1.0038154290050567,-929.5939585304952,-607.9523774067951) " id="svg_25"/>
   <g stroke="null" transform="matrix(1.0038154290050567,0,0,1.0038154290050567,-929.5939585304952,-607.9523774067951) " id="svg_26"/>
   <g stroke="null" transform="matrix(1.0038154290050567,0,0,1.0038154290050567,-929.5939585304952,-607.9523774067951) " id="svg_27"/>
   <g stroke="null" transform="matrix(1.0038154290050567,0,0,1.0038154290050567,-929.5939585304952,-607.9523774067951) " id="svg_28"/>
   <g stroke="null" transform="matrix(1.0038154290050567,0,0,1.0038154290050567,-929.5939585304952,-607.9523774067951) " id="svg_29"/>
   <g stroke="null" transform="matrix(1.0038154290050567,0,0,1.0038154290050567,-929.5939585304952,-607.9523774067951) " id="svg_30"/>
   <g stroke="null" transform="matrix(1.0038154290050567,0,0,1.0038154290050567,-929.5939585304952,-607.9523774067951) " id="svg_31"/>
  </g>
 </g>
</svg>