<svg width="300" height="300" xmlns="http://www.w3.org/2000/svg">
 <!-- Created with SVG Editor - http://github.com/mzalive/SVG Editor/ -->

 <g>
  <title>background</title>
  <rect fill="none" id="canvas_background" height="302" width="302" y="-1" x="-1"/>
 </g>
 <g>
  <title>Layer 1</title>
  <g stroke="null" id="svg_22">
   <g stroke="null" transform="matrix(15.677097160639203,0,0,15.677097160639203,-4.828063256721267,32.284473297019076) " id="svg_5">
    <path stroke="null" id="svg_6" fill="#efc739" d="m17.071102,1.679748c-0.272,-0.273 -0.718,-0.273 -0.99,0l-8.235,8.233l-4.241,-4.27c-0.272,-0.274 -0.715,-0.274 -0.989,0l-1.486,1.485c-0.272,0.271 -0.272,0.717 0,0.99l6.217,6.258c0.272,0.271 0.715,0.271 0.99,0l10.219,-10.22c0.276,-0.273 0.276,-0.72 0,-0.994l-1.485,-1.482z"/>
   </g>
   <g stroke="null" id="svg_7"/>
   <g stroke="null" id="svg_8"/>
   <g stroke="null" transform="matrix(15.677097160639203,0,0,15.677097160639203,-4.828063256721267,32.284473297019076) " id="svg_9"/>
   <g stroke="null" id="svg_10"/>
   <g stroke="null" transform="matrix(15.677097160639203,0,0,15.677097160639203,-4.828063256721267,32.284473297019076) " id="svg_11"/>
   <g stroke="null" transform="matrix(15.677097160639203,0,0,15.677097160639203,-4.828063256721267,32.284473297019076) " id="svg_12"/>
   <g stroke="null" transform="matrix(15.677097160639203,0,0,15.677097160639203,-4.828063256721267,32.284473297019076) " id="svg_13"/>
   <g stroke="null" transform="matrix(15.677097160639203,0,0,15.677097160639203,-4.828063256721267,32.284473297019076) " id="svg_14"/>
   <g stroke="null" transform="matrix(15.677097160639203,0,0,15.677097160639203,-4.828063256721267,32.284473297019076) " id="svg_15"/>
   <g stroke="null" transform="matrix(15.677097160639203,0,0,15.677097160639203,-4.828063256721267,32.284473297019076) " id="svg_16"/>
   <g stroke="null" transform="matrix(15.677097160639203,0,0,15.677097160639203,-4.828063256721267,32.284473297019076) " id="svg_17"/>
   <g stroke="null" transform="matrix(15.677097160639203,0,0,15.677097160639203,-4.828063256721267,32.284473297019076) " id="svg_18"/>
   <g stroke="null" transform="matrix(15.677097160639203,0,0,15.677097160639203,-4.828063256721267,32.284473297019076) " id="svg_19"/>
   <g stroke="null" transform="matrix(15.677097160639203,0,0,15.677097160639203,-4.828063256721267,32.284473297019076) " id="svg_20"/>
   <g stroke="null" transform="matrix(15.677097160639203,0,0,15.677097160639203,-4.828063256721267,32.284473297019076) " id="svg_21"/>
  </g>
 </g>
</svg>