<svg width="300" height="300" xmlns="http://www.w3.org/2000/svg">
 <!-- Created with SVG Editor - http://github.com/mzalive/SVG Editor/ -->

 <g>
  <title>background</title>
  <rect fill="none" id="canvas_background" height="302" width="302" y="-1" x="-1"/>
  <g display="none" overflow="visible" y="0" x="0" height="100%" width="100%" id="canvasGrid">
   <rect fill="url(#gridpattern)" stroke-width="0" y="0" x="0" height="100%" width="100%"/>
  </g>
 </g>
 <g>
  <title>Layer 1</title>
  <g stroke="null" id="svg_26">
   <g stroke="null" transform="matrix(0.9537643475921049,0,0,0.9537643475921049,-1060.2676247994902,-1023.5822579767018) " id="svg_5">
    <g stroke="null" id="svg_6">
     <g stroke="null" id="svg_7">
      <path fill="#ffffff" stroke="null" id="svg_8" d="m1361.133934,1130.384281c-3.627,-5.713 -11.727,-6.427 -16.512,-1.647c-0.054,0.048 -0.102,0.102 -0.156,0.156c-3.508,3.503 -4.147,8.954 -1.497,13.143c9.592,15.166 14.329,32.955 13.251,51.603c-1.352,23.369 -12.779,45.037 -30.069,60.819c-14.211,12.966 -23.32,30.268 -25.89,48.738l-65.175,0c-2.511,-19.383 -11.77,-37.472 -26.689,-51.785c-7.741,-7.425 -14.603,-15.847 -18.878,-25.681c-26.69,-61.372 17.118,-121.928 75.239,-124.622c15.128,-0.676 29.753,2.446 42.864,8.943c4.013,1.99 8.857,1.057 12.028,-2.108l0.156,-0.156c5.247,-5.236 3.621,-13.964 -3.02,-17.247c-16.234,-8.02 -34.313,-11.883 -53.019,-10.965c-62.345,2.891 -111.475,59.145 -102.821,123.516c3.305,24.586 15.563,47.156 33.24,64.569c12.918,12.725 20.026,29.12 20.037,46.27c0.005,5.96 4.415,10.826 10.375,10.826l79.156,0c12.387,0 17.349,-4.614 17.312,-10.434c-0.102,-16.765 7.285,-32.998 20.236,-44.495c23.272,-20.665 36.619,-50.326 36.619,-81.382c0.005,-20.959 -5.875,-40.873 -16.787,-58.061z"/>
      <path fill="#ffffff" stroke="null" id="svg_9" d="m1309.246934,1331.023281l-85.036,0c-5.955,0 -10.778,4.828 -10.778,10.778c0,5.949 4.823,10.778 10.778,10.778l85.036,0c5.955,0 10.778,-4.828 10.778,-10.778s-4.823,-10.778 -10.778,-10.778z"/>
      <path fill="#ffffff" stroke="null" id="svg_10" d="m1293.565934,1359.949281l-53.674,0c-5.955,0 -10.778,4.828 -10.778,10.778c0,5.949 4.823,10.778 10.778,10.778l53.668,0c5.955,0 10.778,-4.828 10.778,-10.778s-4.817,-10.778 -10.772,-10.778z"/>
     </g>
    </g>
   </g>
   <g stroke="null" transform="matrix(0.9537643475921049,0,0,0.9537643475921049,-1060.2676247994902,-1023.5822579767018) " id="svg_11"/>
   <g stroke="null" transform="matrix(0.9537643475921049,0,0,0.9537643475921049,-1060.2676247994902,-1023.5822579767018) " id="svg_12"/>
   <g stroke="null" transform="matrix(0.9537643475921049,0,0,0.9537643475921049,-1060.2676247994902,-1023.5822579767018) " id="svg_13"/>
   <g stroke="null" transform="matrix(0.9537643475921049,0,0,0.9537643475921049,-1060.2676247994902,-1023.5822579767018) " id="svg_14"/>
   <g stroke="null" transform="matrix(0.9537643475921049,0,0,0.9537643475921049,-1060.2676247994902,-1023.5822579767018) " id="svg_15"/>
   <g stroke="null" transform="matrix(0.9537643475921049,0,0,0.9537643475921049,-1060.2676247994902,-1023.5822579767018) " id="svg_16"/>
   <g stroke="null" transform="matrix(0.9537643475921049,0,0,0.9537643475921049,-1060.2676247994902,-1023.5822579767018) " id="svg_17"/>
   <g stroke="null" transform="matrix(0.9537643475921049,0,0,0.9537643475921049,-1060.2676247994902,-1023.5822579767018) " id="svg_18"/>
   <g stroke="null" transform="matrix(0.9537643475921049,0,0,0.9537643475921049,-1060.2676247994902,-1023.5822579767018) " id="svg_19"/>
   <g stroke="null" transform="matrix(0.9537643475921049,0,0,0.9537643475921049,-1060.2676247994902,-1023.5822579767018) " id="svg_20"/>
   <g stroke="null" transform="matrix(0.9537643475921049,0,0,0.9537643475921049,-1060.2676247994902,-1023.5822579767018) " id="svg_21"/>
   <g stroke="null" transform="matrix(0.9537643475921049,0,0,0.9537643475921049,-1060.2676247994902,-1023.5822579767018) " id="svg_22"/>
   <g stroke="null" transform="matrix(0.9537643475921049,0,0,0.9537643475921049,-1060.2676247994902,-1023.5822579767018) " id="svg_23"/>
   <g stroke="null" transform="matrix(0.9537643475921049,0,0,0.9537643475921049,-1060.2676247994902,-1023.5822579767018) " id="svg_24"/>
   <g stroke="null" transform="matrix(0.9537643475921049,0,0,0.9537643475921049,-1060.2676247994902,-1023.5822579767018) " id="svg_25"/>
  </g>
 </g>
</svg>