<svg width="250" height="50" xmlns="http://www.w3.org/2000/svg">
 <!-- Created with SVG Editor - http://github.com/mzalive/SVG Editor/ -->

 <g>
  <title>background</title>
  <rect fill="none" id="canvas_background" height="52" width="252" y="-1" x="-1"/>
  <g display="none" overflow="visible" y="0" x="0" height="100%" width="100%" id="canvasGrid">
   <rect fill="url(#gridpattern)" stroke-width="0" y="0" x="0" height="100%" width="100%"/>
  </g>
 </g>
 <g>
  <title>Layer 1</title>
  <g stroke="null" id="svg_26">
   <g stroke="null" transform="matrix(0.47601985398887575,0,0,0.47601985398887575,-1641.0676781877555,-1185.0068209332676) " id="svg_5">
    <polygon stroke="null" id="svg_6" fill="#E21B1B" points="3484.0549316406245,2552.804817199707 3472.5991210937495,2588.060920715332 3502.5830078124995,2566.260871887207 3532.5512695312495,2588.060920715332 3521.1191406249995,2552.804817199707 3551.0869140624995,2531.028938293457 3514.0390624999995,2531.028938293457 3502.5830078124995,2495.788948059082 3491.1269531249995,2531.028938293457 3454.0710449218745,2531.028938293457 "/>
    <polygon stroke="null" id="svg_7" fill="#E21B1B" points="3617.7832031249995,2531.028938293457 3606.3271484374995,2495.788948059082 3594.8710937499995,2531.028938293457 3557.8149414062495,2531.028938293457 3587.7988281249995,2552.804817199707 3576.3432617187495,2588.060920715332 3606.3271484374995,2566.260871887207 3636.3110351562495,2588.060920715332 3624.8549804687495,2552.804817199707 3654.8471679687495,2531.028938293457 "/>
    <polygon stroke="null" id="svg_8" fill="#E21B1B" points="3721.5268554687495,2531.028938293457 3710.0712890624995,2495.788948059082 3698.6152343749995,2531.028938293457 3661.5590820312495,2531.028938293457 3691.5429687499995,2552.804817199707 3680.0869140624995,2588.060920715332 3710.0712890624995,2566.260871887207 3740.0551757812495,2588.060920715332 3728.5991210937495,2552.804817199707 3758.5827636718745,2531.028938293457 "/>
    <polygon stroke="null" id="svg_9" fill="#E21B1B" points="3825.2707519531245,2531.028938293457 3813.8146972656245,2495.788948059082 3802.3586425781245,2531.028938293457 3765.2946777343745,2531.028938293457 3795.2868652343745,2552.804817199707 3783.8308105468745,2588.060920715332 3813.8146972656245,2566.260871887207 3843.7985839843745,2588.060920715332 3832.3430175781245,2552.804817199707 3862.3269042968745,2531.028938293457 "/>
   </g>
   <polygon stroke="null" id="svg_10" fill="#CCCCCC" points="229.22146606445312,19.813201904296875 223.76815795898438,3.0382843017578125 218.31484985351562,19.813201904296875 200.67941284179688,19.813201904296875 214.9447021484375,30.178985595703125 209.4913330078125,46.96160888671875 223.76815795898438,36.5843505859375 238.04110717773438,46.96160888671875 232.58798217773438,30.178985595703125 246.86099243164062,19.813201904296875 "/>
   <g stroke="null" transform="matrix(0.47601985398887575,0,0,0.47601985398887575,-1641.0676781877555,-1185.0068209332676) " id="svg_11"/>
   <g stroke="null" transform="matrix(0.47601985398887575,0,0,0.47601985398887575,-1641.0676781877555,-1185.0068209332676) " id="svg_12"/>
   <g stroke="null" transform="matrix(0.47601985398887575,0,0,0.47601985398887575,-1641.0676781877555,-1185.0068209332676) " id="svg_13"/>
   <g stroke="null" transform="matrix(0.47601985398887575,0,0,0.47601985398887575,-1641.0676781877555,-1185.0068209332676) " id="svg_14"/>
   <g stroke="null" transform="matrix(0.47601985398887575,0,0,0.47601985398887575,-1641.0676781877555,-1185.0068209332676) " id="svg_15"/>
   <g stroke="null" transform="matrix(0.47601985398887575,0,0,0.47601985398887575,-1641.0676781877555,-1185.0068209332676) " id="svg_16"/>
   <g stroke="null" transform="matrix(0.47601985398887575,0,0,0.47601985398887575,-1641.0676781877555,-1185.0068209332676) " id="svg_17"/>
   <g stroke="null" transform="matrix(0.47601985398887575,0,0,0.47601985398887575,-1641.0676781877555,-1185.0068209332676) " id="svg_18"/>
   <g stroke="null" transform="matrix(0.47601985398887575,0,0,0.47601985398887575,-1641.0676781877555,-1185.0068209332676) " id="svg_19"/>
   <g stroke="null" transform="matrix(0.47601985398887575,0,0,0.47601985398887575,-1641.0676781877555,-1185.0068209332676) " id="svg_20"/>
   <g stroke="null" transform="matrix(0.47601985398887575,0,0,0.47601985398887575,-1641.0676781877555,-1185.0068209332676) " id="svg_21"/>
   <g stroke="null" transform="matrix(0.47601985398887575,0,0,0.47601985398887575,-1641.0676781877555,-1185.0068209332676) " id="svg_22"/>
   <g stroke="null" transform="matrix(0.47601985398887575,0,0,0.47601985398887575,-1641.0676781877555,-1185.0068209332676) " id="svg_23"/>
   <g stroke="null" transform="matrix(0.47601985398887575,0,0,0.47601985398887575,-1641.0676781877555,-1185.0068209332676) " id="svg_24"/>
   <g stroke="null" transform="matrix(0.47601985398887575,0,0,0.47601985398887575,-1641.0676781877555,-1185.0068209332676) " id="svg_25"/>
  </g>
 </g>
</svg>