<svg width="300" height="300" xmlns="http://www.w3.org/2000/svg">
 <!-- Created with SVG Editor - http://github.com/mzalive/SVG Editor/ -->

 <g>
  <title>background</title>
  <rect fill="none" id="canvas_background" height="302" width="302" y="-1" x="-1"/>
  <g display="none" overflow="visible" y="0" x="0" height="100%" width="100%" id="canvasGrid">
   <rect fill="url(#gridpattern)" stroke-width="0" y="0" x="0" height="100%" width="100%"/>
  </g>
 </g>
 <g>
  <title>Layer 1</title>
  <g stroke="null" id="svg_6">
   <path fill="#ffffff" stroke="null" id="svg_5" d="m150.000007,6.23439c-79.40804,0 -143.765616,64.357577 -143.765616,143.765616s64.357577,143.765616 143.765616,143.765616c79.40804,0 143.765616,-64.357577 143.765616,-143.765616s-64.357577,-143.765616 -143.765616,-143.765616zm0,263.551577c-66.154647,0 -119.785961,-53.631314 -119.785961,-119.785961c0,-66.154647 53.631314,-119.785961 119.785961,-119.785961c66.154647,0 119.785961,53.631314 119.785961,119.785961c0,66.154647 -53.631314,119.785961 -119.785961,119.785961zm11.961749,-215.648425l-23.979656,0l0,95.862464l53.912106,53.912106l17.970702,-17.970702l-47.903153,-47.903153l0,-83.900715z"/>
  </g>
 </g>
</svg>